<svg xmlns="http://www.w3.org/2000/svg" viewBox="0 0 1000 1000"><title>logo</title><path d="M369.7,348.49q-11.07,6.74-21.71,14.36L7.71,588A502.9,502.9,0,0,1,0,500C0,223.87,223.84,0,500,0h0c276.14,0,500,223.86,500,500s-223.86,500-500,500a497.89,497.89,0,0,1-222.13-51.93L561.93,760.15l-.19-.33c59.82-34.52,112.17-88.33,142.07-153.18C741,526.52,737.3,446.89,701,389c-12.88-28.19-32.31-83.62,31.2-113.56,15-6.9-64.31-22.08-139.11,33.12-.44.32-.87.64-1.29,1-3-.85-6.08-1.63-9.18-2.35C513.5,290.58,436.25,307.84,369.7,348.49Z" style="fill:#4688f4"/><path d="M593.13,308.54c74.8-55.2,154.07-40,139.11-33.12C668.73,305.36,688.16,360.79,701,389c36.26,57.91,40,137.54,2.77,217.66-29.9,64.85-82.25,118.66-142.07,153.18h0c15-16.56,26.93-35.89,37.39-56.59,42-82.73,39.16-165.45.11-223.66l-.11.09c-68.81,82.8-158.56,153.19-231.84,205.63-12,11.05-26.93,19.33-40.39,27.61C389.69,649.42,469,548.67,491.41,512.8,404.65,588.69,297,656.32,299.94,653.57,431.57,533.49,506.37,421.7,506.37,421.7c2.26-3.7,4.14-6.55,5.82-8.85a209.49,209.49,0,0,0-20.78-6.33c-76.28-19.32-163,2.76-234.83,51.05A359.08,359.08,0,0,1,348,362.85l21.71-14.36c66.55-40.65,143.8-57.91,213-41.33,3.1.72,6.17,1.5,9.18,2.35C592.26,309.18,592.69,308.86,593.13,308.54Z" style="fill:#fcfcfc"/><path d="M256.58,457.57c71.8-48.29,158.55-70.37,234.83-51.05a209.49,209.49,0,0,1,20.78,6.33c-1.68,2.3-3.56,5.15-5.82,8.85,0,0-74.8,111.79-206.43,231.87-3,2.75,104.71-64.88,191.47-140.77C469,548.67,389.69,649.42,326.87,712.91c13.46-8.28,28.42-16.56,40.39-27.61,73.28-52.44,163-122.83,231.84-205.63l.11-.09c39.05,58.21,41.92,140.93-.11,223.66-10.46,20.7-22.43,40-37.39,56.59h0l.19.33L277.87,948.07C138.35,878.77,35.8,746.23,7.71,588L348,362.85A359.08,359.08,0,0,0,256.58,457.57Z" style="fill:#5893f5"/><path d="M369.7,348.49,348,362.85Q358.63,355.24,369.7,348.49Z" style="fill:#fcfcfc"/></svg>