<svg xmlns="http://www.w3.org/2000/svg" viewBox="0 0 512 512"><defs><style>.a{fill:#dadf00;}.b{fill:#2ca6e0;}.c{fill:#fff;}.d{fill:#231815;}</style></defs><title>avatar</title><rect class="a" width="512" height="170"/><rect class="b" y="342" width="512" height="170"/><rect class="c" y="170" width="512" height="172"/><path class="d" d="M343.59,315.62a200.33,200.33,0,0,1-5.38,47.62,96.52,96.52,0,0,1-18.94,38.66Q305.69,418.54,282.92,428t-57.09,9.47a167.55,167.55,0,0,1-58.37-10A144,144,0,0,1,147,418.28a76.36,76.36,0,0,1-13.82-9.47l19.46-39.42a202.94,202.94,0,0,0,27.9,16.13Q197.66,394,223.27,394q36.86,0,53.76-18.69T293.92,311V75h49.66V315.62Z"/></svg>